<svg width="160" height="48" fill="none" xmlns="http://www.w3.org/2000/svg"><path d="m9.648 15.48.32 1.427h.481l-.2-1.427V0h1.601v24.932H9.488L2.242 5.065l-.36-1.427h-.48l.2 1.427v19.867H0V0h4.084l5.564 15.48Zm4.996 4.244c0-1.355.668-2.485 2.002-3.388 1.335-.904 3.296-1.558 5.885-1.962v-3.139c0-.903-.253-1.605-.76-2.104-.48-.523-1.148-.785-2.002-.785-.56 0-1.134.12-1.722.357-.56.214-1.04.523-1.44.927l-1.082-.891c.534-.547 1.215-.975 2.042-1.284.827-.333 1.788-.5 2.883-.5.8 0 1.534.12 2.201.357.694.238 1.282.57 1.762.999.507.428.907.927 1.201 1.498.294.57.44 1.2.44 1.89v13.233h-3.523v-1.07l.36-1.035-.44-.142a6.595 6.595 0 0 1-1.962 1.855c-.774.475-1.547.713-2.322.713-1.014 0-1.855-.369-2.522-1.106-.667-.737-1-1.652-1-2.746v-1.677Zm5.205 3.496c.454 0 .92-.155 1.401-.464a4.66 4.66 0 0 0 1.281-1.248v-6.385c-1.44.38-2.535.928-3.283 1.64-.72.69-1.08 1.653-1.08 2.89v1.284c0 .69.146 1.248.44 1.676.293.405.707.607 1.241.607Zm12.921 1.997c-.987 0-1.775-.345-2.362-1.034-.587-.69-.88-1.629-.88-2.818V8.56h-2.042V7.276h2.041v-4.03l3.403-.999v5.03h4.044V8.56H32.93v12.698c0 .69.107 1.236.32 1.64.214.381.508.571.882.571.533 0 1.12-.332 1.761-.998l1 .927a6.034 6.034 0 0 1-1.96 1.32c-.748.333-1.469.5-2.163.5Zm4.472-5.493c0-1.355.668-2.485 2.002-3.388 1.335-.904 3.296-1.558 5.885-1.962v-3.139c0-.903-.253-1.605-.76-2.104-.48-.523-1.148-.785-2.002-.785-.56 0-1.134.12-1.722.357-.56.214-1.04.523-1.44.927l-1.082-.891c.534-.547 1.215-.975 2.042-1.284.827-.333 1.788-.5 2.882-.5.801 0 1.535.12 2.202.357.694.238 1.282.57 1.762.999.507.428.907.927 1.201 1.498.294.57.44 1.2.44 1.89v13.233H45.13v-1.07l.36-1.035-.44-.142a6.593 6.593 0 0 1-1.962 1.855c-.774.475-1.548.713-2.322.713-1.014 0-1.855-.369-2.522-1.106-.667-.737-1-1.652-1-2.746v-1.677Zm5.205 3.496c.454 0 .92-.155 1.401-.464a4.66 4.66 0 0 0 1.281-1.248v-6.385c-1.441.38-2.535.928-3.283 1.64-.72.69-1.08 1.653-1.08 2.89v1.284c0 .69.146 1.248.44 1.676.293.405.707.607 1.24.607ZM62.568 0v23.54h5.725v1.392h-9.329V0h3.604ZM77.32 22.221c-.827 2.021-2.108 3.032-3.843 3.032-1.255 0-2.296-.345-3.123-1.035-.8-.713-1.201-1.605-1.201-2.675V7.276h3.603v14.41c0 .69.133 1.225.4 1.605a1.28 1.28 0 0 0 1.081.535c.374 0 .748-.13 1.121-.392.4-.262.748-.595 1.041-.999.294-.428.534-.903.72-1.427a4.64 4.64 0 0 0 .281-1.569V7.276h3.403v17.656H77.4v-1.534l.36-1.034-.44-.143Zm10.063 2.711H83.98V0h3.403v24.932Zm3.283-12.127 6.245 12.127h-3.523L88.224 14.41v-.856l5.284-6.278h1.802l-4.644 5.529Zm7.098 6.919c0-1.355.667-2.485 2.002-3.388 1.334-.904 3.296-1.558 5.885-1.962v-3.139c0-.903-.253-1.605-.761-2.104-.48-.523-1.147-.785-2.001-.785-.561 0-1.135.12-1.722.357a4.017 4.017 0 0 0-1.441.927l-1.081-.891c.534-.547 1.214-.975 2.042-1.284.827-.333 1.788-.5 2.882-.5.801 0 1.535.12 2.202.357.694.238 1.281.57 1.762.999.507.428.907.927 1.201 1.498.293.57.44 1.2.44 1.89v13.233h-3.523v-1.07l.36-1.035-.44-.142a6.597 6.597 0 0 1-1.962 1.855c-.774.475-1.548.713-2.322.713-1.014 0-1.855-.369-2.522-1.106-.667-.737-1-1.652-1-2.746v-1.677Zm5.205 3.496c.453 0 .921-.155 1.401-.464a4.662 4.662 0 0 0 1.281-1.248v-6.385c-1.441.38-2.535.928-3.283 1.64-.72.69-1.081 1.653-1.081 2.89v1.284c0 .69.147 1.248.441 1.676.293.405.707.607 1.241.607Zm12.835-13.233c.828-2.021 2.109-3.032 3.844-3.032a4.75 4.75 0 0 1 1.681.286c.534.19.988.451 1.361.784.401.333.708.726.921 1.177.24.452.361.94.361 1.463v14.267h-3.604v-14.41c0-.69-.133-1.213-.4-1.57-.267-.38-.627-.57-1.081-.57-.374 0-.747.13-1.121.392a4.015 4.015 0 0 0-1.001 1.035 5.488 5.488 0 0 0-.72 1.39 4.637 4.637 0 0 0-.281 1.57v12.163h-3.403V7.276h3.403V8.81l-.36 1.034.4.143Zm11.178-6.813c0-.523.2-.963.6-1.32.401-.356.908-.534 1.522-.534.613 0 1.134.178 1.561.535.427.356.64.796.64 1.32 0 .546-.213 1.01-.64 1.39-.427.357-.948.535-1.561.535-.614 0-1.121-.178-1.522-.535-.4-.38-.6-.844-.6-1.39Zm3.803 4.102v17.656h-3.403V7.276h3.403Zm7.031 2.711c.827-2.021 2.108-3.032 3.843-3.032.614 0 1.175.095 1.682.286.534.19.987.451 1.361.784.4.333.707.726.921 1.177.24.452.36.94.36 1.463v14.267h-3.603v-14.41c0-.69-.134-1.213-.4-1.57-.267-.38-.628-.57-1.081-.57-.374 0-.748.13-1.121.392a3.998 3.998 0 0 0-1.001 1.035 5.49 5.49 0 0 0-.721 1.39 4.635 4.635 0 0 0-.28 1.57v12.163h-3.403V7.276h3.403V8.81l-.36 1.034.4.143Zm10.774 9.737c0-1.355.667-2.485 2.002-3.388 1.334-.904 3.296-1.558 5.885-1.962v-3.139c0-.903-.254-1.605-.761-2.104-.48-.523-1.147-.785-2.002-.785-.56 0-1.134.12-1.721.357a4.007 4.007 0 0 0-1.441.927l-1.081-.891c.534-.547 1.214-.975 2.042-1.284.827-.333 1.788-.5 2.882-.5.801 0 1.535.12 2.202.357.694.238 1.281.57 1.762.999.507.428.907.927 1.201 1.498.293.57.44 1.2.44 1.89v13.233h-3.523v-1.07l.36-1.035-.44-.142a6.597 6.597 0 0 1-1.962 1.855c-.774.475-1.548.713-2.322.713-1.014 0-1.855-.369-2.522-1.106-.667-.737-1.001-1.652-1.001-2.746v-1.677Zm5.205 3.496c.453 0 .92-.155 1.401-.464a4.662 4.662 0 0 0 1.281-1.248v-6.385c-1.441.38-2.536.928-3.283 1.64-.721.69-1.081 1.653-1.081 2.89v1.284c0 .69.147 1.248.44 1.676.294.405.708.607 1.242.607ZM5.792 26.74v4.83c.55.05 1.064.172 1.54.368.496.197.918.45 1.267.76.349.295.624.638.826 1.03.202.393.303.81.303 1.251v5.665c0 .457-.101.89-.303 1.3a3.632 3.632 0 0 1-.826 1.054c-.349.294-.761.54-1.239.735-.477.18-1 .295-1.568.344V48H4.746v-3.948a5.297 5.297 0 0 1-1.57-.368 5.124 5.124 0 0 1-1.265-.735 3.632 3.632 0 0 1-.826-1.055 2.696 2.696 0 0 1-.303-1.25v-5.665c0-.458.101-.883.303-1.275.202-.392.477-.736.826-1.03.367-.31.789-.564 1.266-.76.477-.196 1-.319 1.569-.368V26.74h1.046Zm0 16.43c1.009-.115 1.513-.687 1.513-1.717V34.17c0-1.014-.504-1.586-1.513-1.717V43.17ZM4.746 32.452c-1.028.18-1.542.752-1.542 1.717v7.283c0 .964.514 1.536 1.542 1.716V32.453Zm5.19 10.472c.257.114.504.172.743.172.403 0 .679-.205.826-.613.165-.425.266-1.03.302-1.815l.496-8.926h7.211V43.88h-2.34V32.625h-2.532l-.468 7.822c-.036.605-.156 1.136-.357 1.594a3.725 3.725 0 0 1-.771 1.153c-.294.31-.633.54-1.018.686a2.94 2.94 0 0 1-1.101.221 3.06 3.06 0 0 1-1.377-.343l.386-.834Zm15.642-11.403c.55 0 1.064.098 1.54.295.496.18.928.433 1.295.76.385.31.688.678.908 1.103.22.41.33.842.33 1.3v5.665c0 .474-.11.923-.33 1.348a3.624 3.624 0 0 1-.853 1.104c-.349.31-.762.556-1.239.735-.477.18-.99.27-1.541.27a4.57 4.57 0 0 1-1.57-.27 5.053 5.053 0 0 1-1.32-.76 4.04 4.04 0 0 1-.881-1.103 2.844 2.844 0 0 1-.33-1.325V34.98c0-.474.1-.916.302-1.324a3.61 3.61 0 0 1 .881-1.104c.367-.31.79-.556 1.266-.735a4.15 4.15 0 0 1 1.542-.294Zm.082.908a1.53 1.53 0 0 0-1.183.515c-.312.327-.468.735-.468 1.226v7.283c0 .49.156.907.468 1.25.312.327.706.49 1.183.49.459 0 .835-.154 1.129-.465.293-.327.44-.752.44-1.275V34.17c0-.507-.147-.924-.44-1.25a1.448 1.448 0 0 0-1.129-.491Zm8.023.76.302.098c.257-.621.56-1.07.909-1.349.367-.278.816-.416 1.348-.416.44 0 .854.09 1.239.27.404.179.752.424 1.046.735.293.294.523.646.688 1.054.183.393.275.81.275 1.25v5.763c0 .474-.092.924-.275 1.35a3.802 3.802 0 0 1-.743 1.127 3.86 3.86 0 0 1-1.101.76c-.404.18-.835.27-1.294.27-1.009 0-1.706-.507-2.092-1.52l-.302.098.247.71V48h-2.34V31.742h2.34v.736l-.247.71Zm.247 7.65c0 .295.046.581.138.859.11.278.248.523.413.736.165.212.358.384.578.515.22.13.45.196.688.196.385 0 .697-.156.936-.466.257-.31.385-.703.385-1.177v-7.063c0-.474-.138-.866-.413-1.176-.257-.328-.578-.49-.963-.49-.22 0-.44.064-.66.195a1.87 1.87 0 0 0-.551.49 2.553 2.553 0 0 0-.413.712 2.429 2.429 0 0 0-.138.809v5.86Zm14.737-9.097V43.88H47.62v-9.465l.192-.711-.33-.05-.192.712-4.432 9.514H41.4V31.742h.991v7.455l-.137.71.33.05.165-.736 3.44-7.479h2.478Zm2.03 3.458c0-.523.1-1.006.302-1.447.202-.441.477-.826.826-1.153.367-.327.79-.58 1.266-.76a4.298 4.298 0 0 1 1.597-.294c.623 0 1.22.106 1.789.319a4.292 4.292 0 0 1 1.486.883l-.716.613a3.29 3.29 0 0 0-1.073-.638 2.94 2.94 0 0 0-1.156-.245c-.587 0-1.055.171-1.404.515-.33.343-.495.809-.495 1.398v6.67c0 .62.183 1.127.55 1.52.386.376.9.564 1.542.564.532 0 1.018-.123 1.458-.368a2.7 2.7 0 0 0 1.046-1.03l.881.392a3.587 3.587 0 0 1-1.514 1.447c-.66.343-1.404.515-2.23.515a5.05 5.05 0 0 1-1.678-.27 4.696 4.696 0 0 1-1.321-.784 3.45 3.45 0 0 1-.854-1.153 3.666 3.666 0 0 1-.302-1.496V35.2Zm15.62-2.575h-2.642V43.88h-2.34V32.625h-2.67v-.883h7.652v.883Zm6.899 3.139v.931h-5.67v-.931h5.67Zm.145 11.329v-3.728h.963c.24-.36.44-.8.606-1.324.184-.523.33-1.144.44-1.863.11-.72.193-1.545.248-2.477.055-.948.083-2.027.083-3.237v-2.722h6.495v11.623h1.35v3.728h-2.34v-2.845H74.38v2.845h-1.02Zm6.496-3.728v-10.74h-3.11v2.109c0 .932-.028 1.83-.083 2.697-.037.867-.11 1.676-.22 2.428-.11.735-.257 1.406-.44 2.01-.166.605-.377 1.104-.633 1.496h4.486Zm4.358-8.288c0-.49.101-.948.303-1.373.22-.425.514-.793.88-1.104.368-.327.79-.58 1.267-.76.477-.196.99-.294 1.541-.294.55 0 1.074.098 1.57.294.495.18.926.433 1.293.76.367.311.66.679.88 1.104.22.425.331.883.331 1.373v3.065h-5.642v3.237c0 .507.201.932.605 1.275.404.344.9.515 1.486.515.588 0 1.11-.139 1.57-.417a2.981 2.981 0 0 0 1.073-1.226l.936.32a3.956 3.956 0 0 1-1.57 1.667c-.678.376-1.449.564-2.311.564a4.96 4.96 0 0 1-1.652-.27 4.49 4.49 0 0 1-1.349-.736 3.909 3.909 0 0 1-.88-1.128 2.941 2.941 0 0 1-.33-1.373v-5.493Zm5.643 2.183v-3.066c0-.49-.156-.907-.468-1.25-.312-.344-.688-.515-1.129-.515-.44 0-.825.18-1.156.54a1.762 1.762 0 0 0-.468 1.225l-.027 3.066h3.248Zm7.447 1.201c-.146-.343-.45-.515-.908-.515h-.082v5.934h-2.34V31.718h2.34v5.32h.55l3.22-5.32h1.184l-3.303 5.443a2.94 2.94 0 0 1 1.019.564c.33.262.578.605.743 1.03l2.477 5.125h-2.422l-2.478-5.419Zm9.313-6.94c.55 0 1.064.098 1.541.295.496.18.927.433 1.294.76.385.31.688.678.908 1.103.22.41.33.842.33 1.3v5.665c0 .474-.11.923-.33 1.348a3.625 3.625 0 0 1-.853 1.104c-.349.31-.762.556-1.239.735a4.33 4.33 0 0 1-1.541.27c-.55 0-1.073-.09-1.569-.27a5.052 5.052 0 0 1-1.321-.76 4.036 4.036 0 0 1-.881-1.103 2.846 2.846 0 0 1-.33-1.325V34.98c0-.474.101-.916.303-1.324a3.6 3.6 0 0 1 .88-1.104c.367-.31.789-.556 1.267-.735a4.147 4.147 0 0 1 1.541-.294Zm.082.908a1.53 1.53 0 0 0-1.183.515c-.312.327-.468.735-.468 1.226v7.283c0 .49.156.907.468 1.25.312.327.706.49 1.183.49.459 0 .835-.154 1.129-.465.294-.327.44-.752.44-1.275V34.17c0-.507-.146-.924-.44-1.25a1.45 1.45 0 0 0-1.129-.491Zm8.023.76.303.098c.257-.621.559-1.07.908-1.349.367-.278.816-.416 1.349-.416.44 0 .853.09 1.238.27.404.179.753.424 1.046.735.294.294.523.646.688 1.054.184.393.275.81.275 1.25v5.763c0 .474-.091.924-.275 1.35a3.79 3.79 0 0 1-.743 1.127c-.312.31-.679.564-1.101.76-.404.18-.835.27-1.294.27-1.009 0-1.706-.507-2.091-1.52l-.303.098.248.71V48h-2.34V31.742h2.34v.736l-.248.71Zm.248 7.65c0 .295.045.581.137.859.11.278.248.523.413.736.165.212.358.384.578.515.22.13.45.196.688.196.386 0 .697-.156.936-.466.257-.31.385-.703.385-1.177v-7.063c0-.474-.137-.866-.413-1.176-.256-.328-.578-.49-.963-.49-.22 0-.44.064-.66.195a1.87 1.87 0 0 0-.551.49 2.556 2.556 0 0 0-.413.712 2.42 2.42 0 0 0-.137.809v5.86Zm7.164-.539c0-.932.458-1.708 1.376-2.33.917-.62 2.266-1.07 4.046-1.348v-2.158c0-.621-.174-1.103-.523-1.447-.33-.36-.789-.54-1.376-.54-.386 0-.78.083-1.184.246a2.77 2.77 0 0 0-.991.638l-.743-.613c.367-.377.835-.67 1.404-.883.569-.23 1.229-.343 1.982-.343.55 0 1.055.081 1.513.245a3.5 3.5 0 0 1 1.212.686c.348.294.623.638.825 1.03a2.8 2.8 0 0 1 .303 1.3v9.097h-2.422v-.735l.248-.711-.303-.098a4.536 4.536 0 0 1-1.349 1.275c-.532.327-1.064.49-1.596.49-.698 0-1.276-.253-1.734-.76-.459-.507-.688-1.136-.688-1.888V40.3Zm3.578 2.403c.312 0 .633-.106.963-.319.349-.228.642-.514.881-.858v-4.39c-.991.262-1.743.639-2.257 1.129-.496.474-.743 1.136-.743 1.986v.883c0 .474.101.858.303 1.152.201.278.486.417.853.417Zm13.097-10.078h-2.642V43.88h-2.34V32.625h-2.67v-.883h7.652v.883Zm4.632-1.104c.551 0 1.064.098 1.542.295.495.18.926.433 1.293.76.385.31.688.678.908 1.103.221.41.331.842.331 1.3v5.665c0 .474-.11.923-.331 1.348a3.61 3.61 0 0 1-.853 1.104c-.348.31-.761.556-1.238.735-.477.18-.991.27-1.542.27-.55 0-1.073-.09-1.569-.27a5.068 5.068 0 0 1-1.321-.76 4.054 4.054 0 0 1-.881-1.103 2.846 2.846 0 0 1-.33-1.325V34.98c0-.474.101-.916.303-1.324a3.61 3.61 0 0 1 .881-1.104 4.27 4.27 0 0 1 1.266-.735 4.147 4.147 0 0 1 1.541-.294Zm.083.908c-.477 0-.872.171-1.184.515-.312.327-.468.735-.468 1.226v7.283c0 .49.156.907.468 1.25.312.327.707.49 1.184.49.458 0 .835-.154 1.128-.465.294-.327.441-.752.441-1.275V34.17c0-.507-.147-.924-.441-1.25-.293-.328-.67-.491-1.128-.491Zm8.022.76.303.098c.257-.621.56-1.07.908-1.349.367-.278.817-.416 1.349-.416.44 0 .853.09 1.239.27.403.179.752.424 1.045.735.294.294.523.646.689 1.054.183.393.275.81.275 1.25v5.763c0 .474-.092.924-.275 1.35a3.812 3.812 0 0 1-.744 1.127c-.312.31-.679.564-1.101.76-.403.18-.834.27-1.293.27-1.009 0-1.707-.507-2.092-1.52l-.303.098.248.71V48h-2.34V31.742h2.34v.736l-.248.71Zm.248 7.65c0 .295.046.581.138.859.11.278.247.523.412.736.166.212.358.384.578.515.221.13.45.196.688.196.386 0 .698-.156.936-.466.257-.31.386-.703.386-1.177v-7.063c0-.474-.138-.866-.413-1.176-.257-.328-.578-.49-.964-.49-.22 0-.44.064-.66.195a1.881 1.881 0 0 0-.551.49 2.554 2.554 0 0 0-.412.712 2.422 2.422 0 0 0-.138.809v5.86Z" fill="#161616"/></svg>