<svg width="160" height="48" viewBox="0 0 160 48" fill="none" xmlns="http://www.w3.org/2000/svg">
<path d="M9.64846 15.4798L9.96874 16.9066H10.4492L10.249 15.4798V0H11.8504V24.9318H9.48832L2.24197 5.06483L1.88165 3.63812H1.40123L1.6014 5.06483V24.9318H0V0H4.08358L9.64846 15.4798Z" fill="#161616"/>
<path d="M14.6444 19.7243C14.6444 18.3689 15.3117 17.2395 16.6462 16.3359C17.9807 15.4323 19.9424 14.7784 22.5313 14.3741V11.2354C22.5313 10.3318 22.2778 9.63032 21.7707 9.13097C21.2902 8.60784 20.623 8.34628 19.7689 8.34628C19.2084 8.34628 18.6346 8.46517 18.0474 8.70295C17.4869 8.91696 17.0065 9.22608 16.6061 9.63032L15.5252 8.73862C16.059 8.19172 16.7396 7.7637 17.567 7.45458C18.3944 7.12168 19.3552 6.95523 20.4495 6.95523C21.2502 6.95523 21.9842 7.07412 22.6514 7.31191C23.3454 7.54969 23.9326 7.88259 24.413 8.31061C24.9201 8.73862 25.3204 9.23797 25.614 9.80866C25.9076 10.3793 26.0544 11.0095 26.0544 11.6991V24.9318H22.5313V23.8618L22.8916 22.8274L22.4513 22.6847C21.9174 23.4457 21.2635 24.0639 20.4895 24.5395C19.7155 25.015 18.9415 25.2528 18.1675 25.2528C17.1533 25.2528 16.3125 24.8843 15.6453 24.1471C14.978 23.41 14.6444 22.4945 14.6444 21.4007V19.7243ZM19.849 23.2198C20.3027 23.2198 20.7698 23.0652 21.2502 22.7561C21.7573 22.4232 22.1844 22.0071 22.5313 21.5077V15.1232C21.0901 15.5036 19.9958 16.0505 19.2484 16.7639C18.5278 17.4535 18.1675 18.4165 18.1675 19.653V20.937C18.1675 21.6266 18.3143 22.1854 18.6079 22.6134C18.9015 23.0176 19.3152 23.2198 19.849 23.2198Z" fill="#161616"/>
<path d="M32.7703 25.2172C31.7828 25.2172 30.9954 24.8724 30.4082 24.1828C29.821 23.4932 29.5275 22.554 29.5275 21.365V8.56028H27.4857V7.27624H29.5275V3.24577L32.9304 2.24707V7.27624H36.974V8.56028H32.9304V21.258C32.9304 21.9476 33.0372 22.4945 33.2507 22.8988C33.4642 23.2792 33.7578 23.4694 34.1315 23.4694C34.6653 23.4694 35.2525 23.1365 35.893 22.4707L36.8939 23.3981C36.3601 23.945 35.7062 24.3849 34.9322 24.7178C34.1849 25.0507 33.4642 25.2172 32.7703 25.2172Z" fill="#161616"/>
<path d="M37.2423 19.7243C37.2423 18.3689 37.9096 17.2395 39.2441 16.3359C40.5786 15.4323 42.5403 14.7784 45.1293 14.3741V11.2354C45.1293 10.3318 44.8757 9.63032 44.3686 9.13097C43.8882 8.60784 43.2209 8.34628 42.3668 8.34628C41.8064 8.34628 41.2325 8.46517 40.6453 8.70295C40.0848 8.91696 39.6044 9.22608 39.2041 9.63032L38.1231 8.73862C38.6569 8.19172 39.3375 7.7637 40.1649 7.45458C40.9923 7.12168 41.9531 6.95523 43.0474 6.95523C43.8481 6.95523 44.5821 7.07412 45.2494 7.31191C45.9433 7.54969 46.5305 7.88259 47.0109 8.31061C47.518 8.73862 47.9184 9.23797 48.212 9.80866C48.5056 10.3793 48.6524 11.0095 48.6524 11.6991V24.9318H45.1293V23.8618L45.4896 22.8274L45.0492 22.6847C44.5154 23.4457 43.8615 24.0639 43.0875 24.5395C42.3135 25.015 41.5395 25.2528 40.7654 25.2528C39.7512 25.2528 38.9105 24.8843 38.2432 24.1471C37.576 23.41 37.2423 22.4945 37.2423 21.4007V19.7243ZM42.4469 23.2198C42.9006 23.2198 43.3677 23.0652 43.8481 22.7561C44.3553 22.4232 44.7823 22.0071 45.1293 21.5077V15.1232C43.688 15.5036 42.5937 16.0505 41.8464 16.7639C41.1258 17.4535 40.7654 18.4165 40.7654 19.653V20.937C40.7654 21.6266 40.9122 22.1854 41.2058 22.6134C41.4994 23.0176 41.9131 23.2198 42.4469 23.2198Z" fill="#161616"/>
<path d="M62.5677 0V23.5408H68.2927V24.9318H58.9645V0H62.5677Z" fill="#161616"/>
<path d="M77.32 22.2211C76.4926 24.2422 75.2115 25.2528 73.4766 25.2528C72.2222 25.2528 71.1813 24.908 70.3539 24.2185C69.5532 23.5051 69.1528 22.6134 69.1528 21.5434V7.27624H72.756V21.686C72.756 22.3756 72.8894 22.9106 73.1563 23.2911C73.4232 23.6478 73.7836 23.8261 74.2373 23.8261C74.611 23.8261 74.9846 23.6953 75.3583 23.4338C75.7586 23.1722 76.1056 22.8393 76.3992 22.4351C76.6928 22.0071 76.933 21.5315 77.1198 21.0084C77.3066 20.4852 77.4001 19.9621 77.4001 19.439V7.27624H80.803V24.9318H77.4001V23.3981L77.7604 22.3637L77.32 22.2211Z" fill="#161616"/>
<path d="M87.3829 24.9318H83.9799V0H87.3829V24.9318ZM90.6658 12.8048L96.9112 24.9318H93.3881L88.2236 14.4098V13.5538L93.5083 7.27624H95.3098L90.6658 12.8048Z" fill="#161616"/>
<path d="M97.7642 19.7243C97.7642 18.3689 98.4314 17.2395 99.7659 16.3359C101.1 15.4323 103.062 14.7784 105.651 14.3741V11.2354C105.651 10.3318 105.398 9.63032 104.89 9.13097C104.41 8.60784 103.743 8.34628 102.889 8.34628C102.328 8.34628 101.754 8.46517 101.167 8.70295C100.607 8.91696 100.126 9.22608 99.7259 9.63032L98.6449 8.73862C99.1787 8.19172 99.8594 7.7637 100.687 7.45458C101.514 7.12168 102.475 6.95523 103.569 6.95523C104.37 6.95523 105.104 7.07412 105.771 7.31191C106.465 7.54969 107.052 7.88259 107.533 8.31061C108.04 8.73862 108.44 9.23797 108.734 9.80866C109.027 10.3793 109.174 11.0095 109.174 11.6991V24.9318H105.651V23.8618L106.011 22.8274L105.571 22.6847C105.037 23.4457 104.383 24.0639 103.609 24.5395C102.835 25.015 102.061 25.2528 101.287 25.2528C100.273 25.2528 99.4323 24.8843 98.7651 24.1471C98.0978 23.41 97.7642 22.4945 97.7642 21.4007V19.7243ZM102.969 23.2198C103.422 23.2198 103.89 23.0652 104.37 22.7561C104.877 22.4232 105.304 22.0071 105.651 21.5077V15.1232C104.21 15.5036 103.116 16.0505 102.368 16.7639C101.648 17.4535 101.287 18.4165 101.287 19.653V20.937C101.287 21.6266 101.434 22.1854 101.728 22.6134C102.021 23.0176 102.435 23.2198 102.969 23.2198Z" fill="#161616"/>
<path d="M115.804 9.987C116.632 7.96582 117.913 6.95523 119.648 6.95523C120.262 6.95523 120.822 7.05034 121.329 7.24057C121.863 7.4308 122.317 7.69236 122.69 8.02526C123.091 8.35816 123.398 8.75051 123.611 9.2023C123.851 9.6541 123.972 10.1416 123.972 10.6647V24.9318H120.368V10.522C120.368 9.83244 120.235 9.30931 119.968 8.95263C119.701 8.57217 119.341 8.38194 118.887 8.38194C118.513 8.38194 118.14 8.51273 117.766 8.77429C117.392 9.03585 117.059 9.38064 116.765 9.80866C116.472 10.2129 116.231 10.6766 116.045 11.1997C115.858 11.7228 115.764 12.246 115.764 12.7691V24.9318H112.361V7.27624H115.764V8.80996L115.404 9.84433L115.804 9.987Z" fill="#161616"/>
<path d="M126.982 3.17444C126.982 2.65131 127.182 2.21141 127.582 1.85473C127.983 1.49805 128.49 1.31971 129.104 1.31971C129.717 1.31971 130.238 1.49805 130.665 1.85473C131.092 2.21141 131.305 2.65131 131.305 3.17444C131.305 3.72135 131.092 4.18503 130.665 4.56548C130.238 4.92216 129.717 5.1005 129.104 5.1005C128.49 5.1005 127.983 4.92216 127.582 4.56548C127.182 4.18503 126.982 3.72135 126.982 3.17444ZM130.785 7.27624V24.9318H127.382V7.27624H130.785Z" fill="#161616"/>
<path d="M137.816 9.987C138.643 7.96582 139.924 6.95523 141.659 6.95523C142.273 6.95523 142.834 7.05034 143.341 7.24057C143.875 7.4308 144.328 7.69236 144.702 8.02526C145.102 8.35816 145.409 8.75051 145.623 9.2023C145.863 9.6541 145.983 10.1416 145.983 10.6647V24.9318H142.38V10.522C142.38 9.83244 142.246 9.30931 141.98 8.95263C141.713 8.57217 141.352 8.38194 140.899 8.38194C140.525 8.38194 140.151 8.51273 139.778 8.77429C139.404 9.03585 139.07 9.38064 138.777 9.80866C138.483 10.2129 138.243 10.6766 138.056 11.1997C137.869 11.7228 137.776 12.246 137.776 12.7691V24.9318H134.373V7.27624H137.776V8.80996L137.416 9.84433L137.816 9.987Z" fill="#161616"/>
<path d="M148.59 19.7243C148.59 18.3689 149.257 17.2395 150.592 16.3359C151.926 15.4323 153.888 14.7784 156.477 14.3741V11.2354C156.477 10.3318 156.223 9.63032 155.716 9.13097C155.236 8.60784 154.569 8.34628 153.714 8.34628C153.154 8.34628 152.58 8.46517 151.993 8.70295C151.432 8.91696 150.952 9.22608 150.552 9.63032L149.471 8.73862C150.005 8.19172 150.685 7.7637 151.513 7.45458C152.34 7.12168 153.301 6.95523 154.395 6.95523C155.196 6.95523 155.93 7.07412 156.597 7.31191C157.291 7.54969 157.878 7.88259 158.359 8.31061C158.866 8.73862 159.266 9.23797 159.56 9.80866C159.853 10.3793 160 11.0095 160 11.6991V24.9318H156.477V23.8618L156.837 22.8274L156.397 22.6847C155.863 23.4457 155.209 24.0639 154.435 24.5395C153.661 25.015 152.887 25.2528 152.113 25.2528C151.099 25.2528 150.258 24.8843 149.591 24.1471C148.924 23.41 148.59 22.4945 148.59 21.4007V19.7243ZM153.795 23.2198C154.248 23.2198 154.715 23.0652 155.196 22.7561C155.703 22.4232 156.13 22.0071 156.477 21.5077V15.1232C155.036 15.5036 153.941 16.0505 153.194 16.7639C152.473 17.4535 152.113 18.4165 152.113 19.653V20.937C152.113 21.6266 152.26 22.1854 152.553 22.6134C152.847 23.0176 153.261 23.2198 153.795 23.2198Z" fill="#161616"/>
<path d="M5.79159 26.7397V31.5705C6.34208 31.6195 6.85586 31.7421 7.33294 31.9383C7.82838 32.1345 8.25042 32.3879 8.59906 32.6985C8.94769 32.9928 9.22294 33.3361 9.42478 33.7284C9.62662 34.1208 9.72754 34.5376 9.72754 34.979V40.6435C9.72754 41.1012 9.62662 41.5345 9.42478 41.9431C9.22294 42.3355 8.94769 42.687 8.59906 42.9976C8.25042 43.2918 7.83755 43.5371 7.36047 43.7332C6.88338 43.9131 6.36042 44.0275 5.79159 44.0765V48H4.74568V44.052C4.17684 44.003 3.65388 43.8804 3.1768 43.6842C2.69971 43.488 2.27768 43.2428 1.91069 42.9485C1.56205 42.6379 1.28681 42.2865 1.08497 41.8941C0.883121 41.5018 0.7822 41.0849 0.7822 40.6435V34.979C0.7822 34.5213 0.883121 34.0962 1.08497 33.7039C1.28681 33.3115 1.56205 32.9682 1.91069 32.674C2.27768 32.3634 2.69971 32.11 3.1768 31.9138C3.65388 31.7176 4.17684 31.595 4.74568 31.546V26.7397H5.79159ZM5.79159 43.1692C6.80081 43.0548 7.30542 42.4826 7.30542 41.4527V34.1698C7.30542 33.1562 6.80081 32.5841 5.79159 32.4533V43.1692ZM4.74568 32.4533C3.71811 32.6331 3.20432 33.2053 3.20432 34.1698V41.4527C3.20432 42.4172 3.71811 42.9894 4.74568 43.1692V32.4533Z" fill="#161616"/>
<path d="M9.9357 42.924C10.1926 43.0385 10.4403 43.0957 10.6788 43.0957C11.0825 43.0957 11.3578 42.8913 11.5046 42.4826C11.6697 42.0576 11.7706 41.4527 11.8073 40.668L12.3028 31.7421H19.5141V43.8804H17.1745V32.6249H14.6423L14.1744 40.4473C14.1377 41.0522 14.0184 41.5835 13.8166 42.0412C13.6148 42.499 13.3579 42.8831 13.0459 43.1938C12.7523 43.5044 12.4129 43.7332 12.0275 43.8804C11.6605 44.0275 11.2936 44.1011 10.9266 44.1011C10.4678 44.1011 10.0091 43.9866 9.55036 43.7578L9.9357 42.924Z" fill="#161616"/>
<path d="M25.5776 31.5215C26.1281 31.5215 26.6418 31.6195 27.1189 31.8157C27.6144 31.9955 28.0456 32.2489 28.4126 32.5759C28.7979 32.8865 29.1007 33.2543 29.3209 33.6794C29.5411 34.0881 29.6511 34.5213 29.6511 34.979V40.6435C29.6511 41.1176 29.5411 41.5672 29.3209 41.9922C29.119 42.4009 28.8346 42.7687 28.4676 43.0957C28.119 43.4063 27.7061 43.6515 27.229 43.8313C26.7519 44.0111 26.2382 44.1011 25.6877 44.1011C25.1372 44.1011 24.6142 44.0111 24.1188 43.8313C23.6234 43.6351 23.183 43.3818 22.7976 43.0711C22.4307 42.7442 22.1371 42.3764 21.9169 41.9677C21.6967 41.5426 21.5866 41.1012 21.5866 40.6435V34.979C21.5866 34.5049 21.6875 34.0635 21.8893 33.6548C22.1095 33.2298 22.4031 32.862 22.7701 32.5514C23.1371 32.2408 23.5591 31.9955 24.0362 31.8157C24.5317 31.6195 25.0454 31.5215 25.5776 31.5215ZM25.6601 32.4288C25.1831 32.4288 24.7886 32.6004 24.4766 32.9437C24.1647 33.2707 24.0087 33.6794 24.0087 34.1698V41.4527C24.0087 41.9432 24.1647 42.36 24.4766 42.7033C24.7886 43.0303 25.1831 43.1938 25.6601 43.1938C26.1189 43.1938 26.495 43.0385 26.7886 42.7278C27.0822 42.4009 27.229 41.9758 27.229 41.4527V34.1698C27.229 33.663 27.0822 33.2461 26.7886 32.9192C26.495 32.5922 26.1189 32.4288 25.6601 32.4288Z" fill="#161616"/>
<path d="M33.6826 33.1889L33.9853 33.287C34.2422 32.6658 34.545 32.2162 34.8936 31.9383C35.2606 31.6604 35.7102 31.5215 36.2423 31.5215C36.6827 31.5215 37.0956 31.6114 37.4809 31.7912C37.8846 31.971 38.2332 32.2162 38.5268 32.5268C38.8204 32.8211 39.0498 33.1726 39.2149 33.5813C39.3984 33.9736 39.4902 34.3905 39.4902 34.8319V40.5945C39.4902 41.0685 39.3984 41.5181 39.2149 41.9431C39.0314 42.3682 38.7837 42.7442 38.4718 43.0711C38.1598 43.3818 37.7928 43.6351 37.3708 43.8313C36.9671 44.0111 36.5359 44.1011 36.0772 44.1011C35.068 44.1011 34.3707 43.5943 33.9853 42.5807L33.6826 42.6788L33.9303 43.3899V48H31.5907V31.7421H33.9303V32.4778L33.6826 33.1889ZM33.9303 40.8397C33.9303 41.1339 33.9762 41.42 34.0679 41.6979C34.178 41.9758 34.3156 42.2211 34.4808 42.4336C34.6459 42.6461 34.8386 42.8178 35.0588 42.9485C35.279 43.0793 35.5083 43.1447 35.7469 43.1447C36.1322 43.1447 36.4442 42.9894 36.6827 42.6788C36.9396 42.3682 37.068 41.9758 37.068 41.5018V34.4395C37.068 33.9654 36.9304 33.5731 36.6552 33.2625C36.3983 32.9355 36.0772 32.7721 35.6918 32.7721C35.4716 32.7721 35.2515 32.8374 35.0313 32.9682C34.8294 33.0827 34.6459 33.2461 34.4808 33.4587C34.3156 33.6548 34.178 33.8919 34.0679 34.1698C33.9762 34.4314 33.9303 34.7011 33.9303 34.979V40.8397Z" fill="#161616"/>
<path d="M48.6667 31.7421V43.8804H47.6208V34.415L47.8134 33.7039L47.4831 33.6548L47.2905 34.366L42.8591 43.8804H41.4003V31.7421H42.3912V39.1967L42.2536 39.9079L42.5838 39.9569L42.749 39.2213L46.1895 31.7421H48.6667Z" fill="#161616"/>
<path d="M50.6966 35.1997C50.6966 34.6766 50.7975 34.1943 50.9993 33.7529C51.2012 33.3115 51.4764 32.9274 51.8251 32.6004C52.1921 32.2734 52.6141 32.0201 53.0912 31.8402C53.5866 31.6441 54.1187 31.546 54.6876 31.546C55.3115 31.546 55.9078 31.6522 56.4767 31.8648C57.0638 32.0773 57.5593 32.3715 57.963 32.7475L57.2473 33.3606C56.9354 33.0827 56.5776 32.8701 56.1739 32.723C55.7885 32.5595 55.4032 32.4778 55.0179 32.4778C54.4307 32.4778 53.9628 32.6494 53.6141 32.9928C53.2838 33.3361 53.1187 33.802 53.1187 34.3905V41.0604C53.1187 41.6816 53.3022 42.1884 53.6692 42.5807C54.0545 42.9567 54.5683 43.1447 55.2105 43.1447C55.7427 43.1447 56.2289 43.0221 56.6693 42.7769C57.1281 42.5153 57.4767 42.172 57.7152 41.747L58.596 42.1393C58.2474 42.7605 57.7428 43.2428 57.0822 43.5861C56.4216 43.9294 55.6785 44.1011 54.8527 44.1011C54.2472 44.1011 53.6875 44.0111 53.1738 43.8313C52.6783 43.6351 52.2379 43.3736 51.8526 43.0466C51.4856 42.7197 51.2012 42.3355 50.9993 41.8941C50.7975 41.4364 50.6966 40.9378 50.6966 40.3983V35.1997Z" fill="#161616"/>
<path d="M66.3172 32.6249H63.6749V43.8804H61.3353V32.6249H58.6655V31.7421H66.3172V32.6249Z" fill="#161616"/>
<path d="M73.2165 35.7637V36.6955H67.5465V35.7637H73.2165Z" fill="#161616"/>
<path d="M73.3612 47.0927V43.3654H74.3245C74.5631 43.0058 74.7649 42.5644 74.9301 42.0412C75.1136 41.5181 75.2604 40.8969 75.3705 40.1776C75.4806 39.4583 75.5631 38.6327 75.6182 37.7009C75.6732 36.7527 75.7008 35.6738 75.7008 34.4641V31.7421H82.1964V43.3654H83.5451V47.0927H81.2056V44.2482H74.3796V47.0927H73.3612ZM79.8569 43.3654V32.6249H76.7467V34.7338C76.7467 35.6656 76.7191 36.5647 76.6641 37.4312C76.6274 38.2976 76.554 39.1068 76.4439 39.8588C76.3338 40.5945 76.187 41.2647 76.0035 41.8696C75.8384 42.4745 75.6274 42.9731 75.3705 43.3654H79.8569Z" fill="#161616"/>
<path d="M84.2154 35.0771C84.2154 34.5867 84.3163 34.1289 84.5182 33.7039C84.7383 33.2788 85.0319 32.911 85.3989 32.6004C85.7659 32.2734 86.188 32.0201 86.665 31.8402C87.1421 31.6441 87.6559 31.546 88.2064 31.546C88.7569 31.546 89.2798 31.6441 89.7753 31.8402C90.2707 32.0201 90.7019 32.2734 91.0689 32.6004C91.4359 32.911 91.7295 33.2788 91.9497 33.7039C92.1699 34.1289 92.28 34.5867 92.28 35.0771V38.1423H86.6375V41.3792C86.6375 41.8859 86.8394 42.311 87.243 42.6543C87.6467 42.9976 88.1422 43.1692 88.7293 43.1692C89.3165 43.1692 89.8395 43.0303 90.2982 42.7524C90.757 42.4581 91.1148 42.0494 91.3717 41.5263L92.3075 41.8451C91.9405 42.5644 91.4175 43.1202 90.7386 43.5125C90.0597 43.8885 89.289 44.0765 88.4266 44.0765C87.8394 44.0765 87.2889 43.9866 86.7751 43.8068C86.2614 43.627 85.8118 43.3818 85.4265 43.0711C85.0595 42.7442 84.7659 42.3682 84.5457 41.9431C84.3255 41.5181 84.2154 41.0604 84.2154 40.5699V35.0771ZM89.8578 37.2595V34.1943C89.8578 33.7039 89.7019 33.287 89.3899 32.9437C89.078 32.6004 88.7018 32.4288 88.2614 32.4288C87.8211 32.4288 87.4357 32.6086 87.1054 32.9682C86.7935 33.3115 86.6375 33.7202 86.6375 34.1943L86.61 37.2595H89.8578Z" fill="#161616"/>
<path d="M97.3055 38.4611C97.1587 38.1178 96.8559 37.9461 96.3972 37.9461H96.3146V43.8804H93.9751V31.7176H96.3146V37.0388H96.8651L100.085 31.7176H101.269L97.9661 37.1614C98.333 37.2759 98.6725 37.4639 98.9845 37.7254C99.3147 37.987 99.5625 38.3303 99.7276 38.7553L102.205 43.8804H99.7827L97.3055 38.4611Z" fill="#161616"/>
<path d="M106.618 31.5215C107.168 31.5215 107.682 31.6195 108.159 31.8157C108.655 31.9955 109.086 32.2489 109.453 32.5759C109.838 32.8865 110.141 33.2543 110.361 33.6794C110.581 34.0881 110.691 34.5213 110.691 34.979V40.6435C110.691 41.1176 110.581 41.5672 110.361 41.9922C110.159 42.4009 109.875 42.7687 109.508 43.0957C109.159 43.4063 108.746 43.6515 108.269 43.8313C107.792 44.0111 107.278 44.1011 106.728 44.1011C106.178 44.1011 105.655 44.0111 105.159 43.8313C104.664 43.6351 104.223 43.3818 103.838 43.0711C103.471 42.7442 103.177 42.3764 102.957 41.9677C102.737 41.5426 102.627 41.1012 102.627 40.6435V34.979C102.627 34.5049 102.728 34.0635 102.93 33.6548C103.15 33.2298 103.443 32.862 103.81 32.5514C104.177 32.2408 104.599 31.9955 105.077 31.8157C105.572 31.6195 106.086 31.5215 106.618 31.5215ZM106.7 32.4288C106.223 32.4288 105.829 32.6004 105.517 32.9437C105.205 33.2707 105.049 33.6794 105.049 34.1698V41.4527C105.049 41.9432 105.205 42.36 105.517 42.7033C105.829 43.0303 106.223 43.1938 106.7 43.1938C107.159 43.1938 107.535 43.0385 107.829 42.7278C108.123 42.4009 108.269 41.9758 108.269 41.4527V34.1698C108.269 33.663 108.123 33.2461 107.829 32.9192C107.535 32.5922 107.159 32.4288 106.7 32.4288Z" fill="#161616"/>
<path d="M114.723 33.1889L115.026 33.287C115.283 32.6658 115.585 32.2162 115.934 31.9383C116.301 31.6604 116.75 31.5215 117.283 31.5215C117.723 31.5215 118.136 31.6114 118.521 31.7912C118.925 31.971 119.274 32.2162 119.567 32.5268C119.861 32.8211 120.09 33.1726 120.255 33.5813C120.439 33.9736 120.53 34.3905 120.53 34.8319V40.5945C120.53 41.0685 120.439 41.5181 120.255 41.9431C120.072 42.3682 119.824 42.7442 119.512 43.0711C119.2 43.3818 118.833 43.6351 118.411 43.8313C118.007 44.0111 117.576 44.1011 117.117 44.1011C116.108 44.1011 115.411 43.5943 115.026 42.5807L114.723 42.6788L114.971 43.3899V48H112.631V31.7421H114.971V32.4778L114.723 33.1889ZM114.971 40.8397C114.971 41.1339 115.016 41.42 115.108 41.6979C115.218 41.9758 115.356 42.2211 115.521 42.4336C115.686 42.6461 115.879 42.8178 116.099 42.9485C116.319 43.0793 116.549 43.1447 116.787 43.1447C117.173 43.1447 117.484 42.9894 117.723 42.6788C117.98 42.3682 118.108 41.9758 118.108 41.5018V34.4395C118.108 33.9654 117.971 33.5731 117.695 33.2625C117.439 32.9355 117.117 32.7721 116.732 32.7721C116.512 32.7721 116.292 32.8374 116.072 32.9682C115.87 33.0827 115.686 33.2461 115.521 33.4587C115.356 33.6548 115.218 33.8919 115.108 34.1698C115.016 34.4314 114.971 34.7011 114.971 34.979V40.8397Z" fill="#161616"/>
<path d="M122.135 40.3002C122.135 39.3684 122.593 38.5919 123.511 37.9706C124.428 37.3494 125.777 36.8999 127.557 36.622V34.4641C127.557 33.8428 127.383 33.3606 127.034 33.0173C126.704 32.6576 126.245 32.4778 125.658 32.4778C125.272 32.4778 124.878 32.5595 124.474 32.723C124.089 32.8701 123.759 33.0827 123.483 33.3606L122.74 32.7475C123.107 32.3715 123.575 32.0773 124.144 31.8648C124.713 31.6359 125.373 31.5215 126.126 31.5215C126.676 31.5215 127.181 31.6032 127.639 31.7667C128.117 31.9301 128.52 32.159 128.851 32.4533C129.199 32.7475 129.474 33.0908 129.676 33.4832C129.878 33.8755 129.979 34.3087 129.979 34.7828V43.8804H127.557V43.1447L127.805 42.4336L127.502 42.3355C127.135 42.8586 126.685 43.2837 126.153 43.6106C125.621 43.9376 125.089 44.1011 124.557 44.1011C123.859 44.1011 123.281 43.8477 122.823 43.3409C122.364 42.8341 122.135 42.2047 122.135 41.4527V40.3002ZM125.713 42.7033C126.025 42.7033 126.346 42.5971 126.676 42.3845C127.025 42.1557 127.318 41.8696 127.557 41.5263V37.1369C126.566 37.3985 125.814 37.7745 125.3 38.2649C124.804 38.739 124.557 39.4011 124.557 40.2512V41.1339C124.557 41.608 124.658 41.9922 124.86 42.2865C125.061 42.5644 125.346 42.7033 125.713 42.7033Z" fill="#161616"/>
<path d="M138.81 32.6249H136.168V43.8804H133.828V32.6249H131.158V31.7421H138.81V32.6249Z" fill="#161616"/>
<path d="M143.442 31.5215C143.993 31.5215 144.506 31.6195 144.984 31.8157C145.479 31.9955 145.91 32.2489 146.277 32.5759C146.662 32.8865 146.965 33.2543 147.185 33.6794C147.406 34.0881 147.516 34.5213 147.516 34.979V40.6435C147.516 41.1176 147.406 41.5672 147.185 41.9922C146.984 42.4009 146.699 42.7687 146.332 43.0957C145.984 43.4063 145.571 43.6515 145.094 43.8313C144.617 44.0111 144.103 44.1011 143.552 44.1011C143.002 44.1011 142.479 44.0111 141.983 43.8313C141.488 43.6351 141.048 43.3818 140.662 43.0711C140.295 42.7442 140.002 42.3764 139.781 41.9677C139.561 41.5426 139.451 41.1012 139.451 40.6435V34.979C139.451 34.5049 139.552 34.0635 139.754 33.6548C139.974 33.2298 140.268 32.862 140.635 32.5514C141.002 32.2408 141.424 31.9955 141.901 31.8157C142.396 31.6195 142.91 31.5215 143.442 31.5215ZM143.525 32.4288C143.048 32.4288 142.653 32.6004 142.341 32.9437C142.029 33.2707 141.873 33.6794 141.873 34.1698V41.4527C141.873 41.9432 142.029 42.36 142.341 42.7033C142.653 43.0303 143.048 43.1938 143.525 43.1938C143.983 43.1938 144.36 43.0385 144.653 42.7278C144.947 42.4009 145.094 41.9758 145.094 41.4527V34.1698C145.094 33.663 144.947 33.2461 144.653 32.9192C144.36 32.5922 143.983 32.4288 143.525 32.4288Z" fill="#161616"/>
<path d="M151.547 33.1889L151.85 33.287C152.107 32.6658 152.41 32.2162 152.758 31.9383C153.125 31.6604 153.575 31.5215 154.107 31.5215C154.547 31.5215 154.96 31.6114 155.346 31.7912C155.749 31.971 156.098 32.2162 156.391 32.5268C156.685 32.8211 156.914 33.1726 157.08 33.5813C157.263 33.9736 157.355 34.3905 157.355 34.8319V40.5945C157.355 41.0685 157.263 41.5181 157.08 41.9431C156.896 42.3682 156.648 42.7442 156.336 43.0711C156.024 43.3818 155.657 43.6351 155.235 43.8313C154.832 44.0111 154.401 44.1011 153.942 44.1011C152.933 44.1011 152.235 43.5943 151.85 42.5807L151.547 42.6788L151.795 43.3899V48H149.455V31.7421H151.795V32.4778L151.547 33.1889ZM151.795 40.8397C151.795 41.1339 151.841 41.42 151.933 41.6979C152.043 41.9758 152.18 42.2211 152.345 42.4336C152.511 42.6461 152.703 42.8178 152.923 42.9485C153.144 43.0793 153.373 43.1447 153.611 43.1447C153.997 43.1447 154.309 42.9894 154.547 42.6788C154.804 42.3682 154.933 41.9758 154.933 41.5018V34.4395C154.933 33.9654 154.795 33.5731 154.52 33.2625C154.263 32.9355 153.942 32.7721 153.556 32.7721C153.336 32.7721 153.116 32.8374 152.896 32.9682C152.694 33.0827 152.511 33.2461 152.345 33.4587C152.18 33.6548 152.043 33.8919 151.933 34.1698C151.841 34.4314 151.795 34.7011 151.795 34.979V40.8397Z" fill="#161616"/>
</svg>
